<svg width="120" height="31" viewBox="0 0 120 31" fill="none" xmlns="http://www.w3.org/2000/svg">
<path d="M37.9645 11.1728C37.7378 9.50338 36.819 8.05513 35.1503 6.7446L34.1902 6.09769L33.5475 7.07015C32.7275 8.32224 32.3155 10.0626 32.4515 11.7279C32.5133 12.3122 32.7028 13.364 33.2961 14.2822C32.7028 14.6077 31.5326 15.0543 29.9752 15.0209H0.168763L0.111079 15.3673C-0.169103 17.041 -0.164983 22.2664 3.18484 26.2814C5.73119 29.3324 9.54661 30.8808 14.524 30.8808C25.3192 30.8808 33.3085 25.8474 37.0497 16.6946C38.5207 16.7238 41.6892 16.7029 43.3167 13.556C43.3579 13.485 43.4568 13.293 43.7411 12.6962L43.8977 12.3707L42.983 11.753C41.9941 11.081 39.7197 10.8348 37.9686 11.1728H37.9645ZM24.0007 0H19.4683V4.17364H24.0007V0ZM24.0007 5.00837H19.4683V9.18201H24.0007V5.00837ZM18.6443 5.00837H14.1119V9.18201H18.6443V5.00837ZM13.2879 5.00837H8.75551V9.18201H13.2879V5.00837ZM7.93145 10.0167H3.39909V14.1904H7.93145V10.0167ZM13.2879 10.0167H8.75551V14.1904H13.2879V10.0167ZM18.6443 10.0167H14.1119V14.1904H18.6443V10.0167ZM24.0007 10.0167H19.4683V14.1904H24.0007V10.0167ZM29.3571 10.0167H24.8248V14.1904H29.3571V10.0167ZM56.9014 9.08184C56.5677 9.08184 56.2958 9.19453 56.0774 9.41573C55.859 9.63694 55.7519 9.92075 55.7519 10.2588V15.9057C54.6311 14.9792 53.3374 14.5118 51.8664 14.5118C50.1565 14.5118 48.6938 15.1294 47.4824 16.369C46.271 17.6044 45.6694 19.0986 45.6694 20.8515C45.6694 22.6044 46.2751 24.0944 47.4824 25.334C48.6938 26.5694 50.1524 27.1913 51.8664 27.1913C53.5805 27.1913 55.0226 26.5736 56.2504 25.334C57.4618 24.1111 58.0634 22.617 58.0634 20.8515V10.2588C58.0634 9.92075 57.9521 9.63694 57.7255 9.41573C57.4989 9.19453 57.2269 9.08184 56.9014 9.08184ZM55.447 22.3874C55.2451 22.8674 54.969 23.2889 54.6188 23.6479C54.2686 24.011 53.8565 24.2948 53.3868 24.5076C52.913 24.7205 52.4103 24.8248 51.8705 24.8248C51.3308 24.8248 50.8157 24.7205 50.3419 24.5076C49.8681 24.2948 49.4601 24.011 49.114 23.652C48.7679 23.2931 48.4919 22.8716 48.29 22.3916C48.0881 21.9074 47.9851 21.3941 47.9851 20.8515C47.9851 20.3089 48.0881 19.7956 48.29 19.3114C48.4919 18.8273 48.7679 18.4099 49.114 18.051C49.4601 17.6921 49.8722 17.4083 50.3419 17.1954C50.8157 16.9825 51.3225 16.8782 51.8705 16.8782C52.4185 16.8782 52.913 16.9825 53.3868 17.1954C53.8606 17.4083 54.2686 17.6921 54.6188 18.0552C54.969 18.4183 55.2451 18.8398 55.447 19.3156C55.6489 19.7956 55.7519 20.3048 55.7519 20.8473C55.7519 21.3899 55.6489 21.9033 55.447 22.3791V22.3874ZM107.557 16.3732C106.333 15.1378 104.87 14.5159 103.173 14.5159C101.475 14.5159 100 15.1336 98.7886 16.3732C97.5772 17.6086 96.9757 19.1028 96.9757 20.8557C96.9757 22.6086 97.5814 24.0986 98.7886 25.3382C100 26.5736 101.459 27.1954 103.173 27.1954C104.73 27.1954 106.077 26.6821 107.223 25.6554C107.445 25.4216 107.557 25.1378 107.557 24.8081C107.557 24.4784 107.45 24.1863 107.231 23.965C107.013 23.7438 106.737 23.6312 106.407 23.6312C106.119 23.6395 105.863 23.7355 105.645 23.9275C105.299 24.228 104.924 24.4575 104.516 24.6078C104.108 24.758 103.663 24.8332 103.177 24.8332C102.748 24.8332 102.336 24.7664 101.945 24.6287C101.553 24.4909 101.187 24.3031 100.861 24.0569C100.531 23.8106 100.247 23.5185 100.004 23.1721C99.761 22.8298 99.5756 22.45 99.452 22.0327H108.216C108.541 22.0327 108.813 21.92 109.04 21.6988C109.267 21.4776 109.378 21.1938 109.378 20.8557C109.378 19.9792 109.225 19.1654 108.925 18.4183C108.624 17.667 108.166 16.9867 107.565 16.3774L107.557 16.3732ZM99.4437 19.6787C99.5632 19.2655 99.7445 18.8857 99.9876 18.5393C100.231 18.1971 100.519 17.9007 100.849 17.6545C101.183 17.4083 101.545 17.2204 101.945 17.0827C102.344 16.945 102.752 16.8782 103.173 16.8782C103.593 16.8782 104.001 16.945 104.396 17.0827C104.792 17.2204 105.155 17.4083 105.48 17.6545C105.81 17.9007 106.098 18.1929 106.341 18.5393C106.588 18.8816 106.774 19.2614 106.902 19.6787H99.4437ZM119.695 15.3089C119.489 15.1044 119.229 14.9458 118.916 14.8289C118.603 14.7121 118.261 14.6328 117.886 14.5869C117.515 14.541 117.165 14.5201 116.84 14.5201C116.102 14.5201 115.41 14.6411 114.759 14.8832C114.108 15.1253 113.506 15.4717 112.954 15.9224V15.6971C112.954 15.3715 112.843 15.0961 112.616 14.8665C112.39 14.637 112.122 14.5201 111.805 14.5201C111.487 14.5201 111.207 14.637 110.981 14.8665C110.754 15.0961 110.643 15.3757 110.643 15.6971V26.0185C110.643 26.344 110.754 26.6195 110.981 26.849C111.207 27.0786 111.479 27.1954 111.805 27.1954C112.13 27.1954 112.394 27.0786 112.616 26.849C112.843 26.6195 112.954 26.3398 112.954 26.0185V20.8557C112.954 20.3048 113.057 19.7872 113.259 19.3031C113.461 18.8189 113.737 18.4016 114.087 18.0427C114.438 17.6837 114.85 17.3999 115.319 17.1954C115.793 16.9867 116.296 16.8824 116.836 16.8824C117.375 16.8824 117.886 16.9784 118.352 17.1662C118.537 17.2497 118.698 17.2914 118.838 17.2914C118.999 17.2914 119.151 17.2622 119.291 17.1996C119.431 17.137 119.555 17.0535 119.658 16.945C119.761 16.8365 119.843 16.7113 119.905 16.5652C119.967 16.4233 120 16.2689 120 16.1019C120 15.7764 119.897 15.5134 119.691 15.3089H119.695ZM69.9587 16.3732C68.735 15.1378 67.2723 14.5159 65.5747 14.5159C63.8771 14.5159 62.4021 15.1336 61.1907 16.3732C59.9793 17.6086 59.3778 19.1028 59.3778 20.8557C59.3778 22.6086 59.9834 24.0986 61.1907 25.3382C62.4021 26.5736 63.8607 27.1954 65.5747 27.1954C67.2888 27.1954 68.7309 26.5777 69.9587 25.3382C71.1701 24.1153 71.7717 22.6211 71.7717 20.8557C71.7634 19.9792 71.611 19.1695 71.3143 18.4225C71.0135 17.6754 70.5644 16.9909 69.9587 16.3732ZM69.1553 22.3874C68.9534 22.8674 68.6773 23.2889 68.3271 23.6479C67.9769 24.011 67.5648 24.2948 67.0951 24.5076C66.6254 24.7205 66.1186 24.8248 65.5788 24.8248C65.0391 24.8248 64.524 24.7205 64.0502 24.5076C63.5764 24.2948 63.1684 24.011 62.8223 23.652C62.4762 23.2931 62.2002 22.8716 61.9983 22.3916C61.7964 21.9074 61.6934 21.3941 61.6934 20.8515C61.6934 20.3089 61.7964 19.7956 61.9983 19.3114C62.2002 18.8273 62.4762 18.4099 62.8223 18.051C63.1684 17.6921 63.5805 17.4083 64.0502 17.1954C64.524 16.9825 65.0308 16.8782 65.5788 16.8782C66.1268 16.8782 66.6213 16.9825 67.0951 17.1954C67.5689 17.4083 67.9769 17.6921 68.3271 18.0552C68.6773 18.4183 68.9534 18.8398 69.1553 19.3156C69.3572 19.7956 69.4602 20.3048 69.4602 20.8473C69.4602 21.3899 69.3572 21.9033 69.1553 22.3791V22.3874ZM95.7231 15.6929C95.7231 15.5343 95.6901 15.384 95.6283 15.2421C95.5665 15.1002 95.4841 14.9709 95.3811 14.8623C95.2781 14.7538 95.1545 14.6662 95.0144 14.6077C94.8743 14.5493 94.7219 14.5159 94.5612 14.5159C94.3304 14.5159 94.1244 14.5744 93.9431 14.6954L87.3259 19.0986V10.2672C87.3259 9.93327 87.2146 9.65363 86.988 9.42408C86.7614 9.19453 86.4936 9.07767 86.1763 9.07767C85.859 9.07767 85.5789 9.19453 85.3522 9.42408C85.1256 9.65363 85.0144 9.93327 85.0144 10.2672V26.0018C85.0144 26.3273 85.1256 26.607 85.3522 26.8407C85.5789 27.0744 85.8508 27.1913 86.1763 27.1913C86.5018 27.1913 86.7655 27.0744 86.988 26.8407C87.2146 26.607 87.3259 26.3273 87.3259 26.0018V21.9158L88.6773 21.0101L93.7907 26.8824C93.9967 27.0869 94.2563 27.1871 94.5653 27.1871C94.726 27.1871 94.8784 27.1579 95.0185 27.0953C95.1586 27.0368 95.2822 26.9492 95.3852 26.8407C95.4882 26.7322 95.5706 26.607 95.6324 26.4609C95.6943 26.319 95.7272 26.1646 95.7272 26.0101C95.7272 25.7013 95.6201 25.4258 95.4058 25.1838L90.6469 19.7038L95.2822 16.6236C95.5789 16.4191 95.7231 16.1061 95.7231 15.6845V15.6929ZM76.51 18.0427C76.8644 17.6837 77.2764 17.3999 77.7503 17.1954C78.2241 16.9867 78.7268 16.8824 79.2665 16.8824C79.7527 16.8824 80.2018 16.9659 80.618 17.1328C81.03 17.2997 81.4256 17.546 81.8005 17.8674C82.023 18.0468 82.2744 18.1386 82.5545 18.1386C82.8883 18.1386 83.1602 18.026 83.3786 17.8006C83.597 17.5752 83.7041 17.2914 83.7041 16.9533C83.7041 16.6153 83.5723 16.3022 83.3044 16.0602C82.1672 15.0335 80.8199 14.5201 79.2665 14.5201C77.5566 14.5201 76.0939 15.1378 74.8825 16.3774C73.6711 17.6128 73.0696 19.1069 73.0696 20.8599C73.0696 22.6128 73.6753 24.1028 74.8825 25.3423C76.0939 26.5777 77.5525 27.1996 79.2665 27.1996C80.8158 27.1996 82.1631 26.6863 83.3044 25.6595C83.5475 25.4091 83.6712 25.1211 83.6712 24.7873C83.6712 24.4534 83.564 24.1654 83.3456 23.9442C83.1273 23.723 82.8512 23.6103 82.5216 23.6103C82.2414 23.6186 81.9983 23.7021 81.7923 23.8607C81.4215 24.1863 81.0342 24.4283 80.618 24.5911C80.206 24.7539 79.7569 24.8332 79.2665 24.8332C78.7268 24.8332 78.2241 24.7288 77.7503 24.5201C77.2764 24.3115 76.8644 24.0277 76.51 23.6729C76.1557 23.3181 75.8755 22.8924 75.6736 22.4125C75.4717 21.9283 75.3687 21.4108 75.3687 20.8599C75.3687 20.3089 75.4717 19.7914 75.6736 19.3073C75.8755 18.8231 76.1557 18.4058 76.51 18.0468V18.0427Z" fill="white"/>
</svg>
