<svg width="150" height="45" viewBox="0 0 150 45" fill="none" xmlns="http://www.w3.org/2000/svg">
<g clip-path="url(#clip0_105_2826)">
<path d="M61.1071 24.4626L55.6374 12.8125H52.7975V31.5378H55.6374V19.0182L60.0552 28.1465H62.1591L66.473 19.0182V31.5378H69.3129V12.8125H66.473L61.1071 24.4626Z" fill="white"/>
<path d="M79.9809 26.3382C79.9809 28.3912 78.7084 29.3074 77.2237 29.3074C75.7391 29.3074 74.5408 28.4124 74.5408 26.3382V18.2109H71.8536V26.7284C71.8536 28.23 72.1696 29.4856 73.1962 30.493C73.9851 31.2523 75.1156 31.7019 76.4835 31.7019C77.1471 31.7127 77.8056 31.5849 78.4169 31.3267C79.0283 31.0685 79.579 30.6856 80.0339 30.2025V31.5429H82.6638V18.2109H79.9809V26.3382Z" fill="white"/>
<path d="M87.9194 27.699V12.8125H85.2365V27.856C85.2365 29.8305 86.3414 31.5378 88.8929 31.5378H90.5472V29.2515H89.3658C88.2863 29.2515 87.9194 28.7234 87.9194 27.699Z" fill="white"/>
<path d="M96.999 18.0469C93.5801 18.0469 91.3468 20.5474 91.3468 24.8592C91.3468 29.9345 94.0022 31.6969 97.3426 31.6969C99.6755 31.6969 100.971 30.9843 102.337 29.6185L100.628 28.0129C99.6819 28.9631 98.895 29.3788 97.3935 29.3788C95.2111 29.3788 94 27.9345 94 25.646H102.651V24.4626C102.651 20.6768 100.577 18.0469 96.999 18.0469ZM94.0022 23.7733C94.0276 22.961 94.0806 22.5644 94.3436 21.9599C94.5656 21.445 94.9378 21.009 95.4116 20.7089C95.8853 20.4089 96.4385 20.2587 96.999 20.2781C97.5563 20.2593 98.1062 20.4101 98.5761 20.7103C99.046 21.0106 99.4138 21.4463 99.631 21.9599C99.8866 22.5296 100.012 23.1491 99.9979 23.7733H94.0022Z" fill="white"/>
<path d="M115.894 22.3587C115.105 21.6503 114.134 21.2282 112.394 20.9652L110.274 20.6513C109.504 20.5622 108.775 20.262 108.165 19.7839C107.929 19.5629 107.743 19.2931 107.62 18.9932C107.498 18.6933 107.442 18.3704 107.457 18.0469C107.457 16.3905 108.666 15.1264 110.876 15.1264C112.452 15.1264 113.794 15.4679 114.95 16.5729L116.766 14.785C115.162 13.2855 113.427 12.6641 110.954 12.6641C107.06 12.6641 104.694 14.8974 104.694 18.1593C104.694 19.6842 105.143 20.8677 106.064 21.7372C106.878 22.4986 108.087 23.0267 109.612 23.2346L111.82 23.5527C112.927 23.7075 113.4 23.8942 113.873 24.3417C114.346 24.7892 114.609 25.4721 114.609 26.2887C114.609 28.102 113.188 29.1519 110.744 29.1519C108.823 29.1519 107.326 28.7277 105.958 27.364L104.064 29.2325C105.852 31.0479 107.881 31.7054 110.691 31.7054C114.609 31.7054 117.423 29.6524 117.423 26.2081C117.419 24.6004 116.918 23.2537 115.894 22.3587Z" fill="white"/>
<path d="M124.496 18.0469C122.683 18.0469 121.396 18.7298 120.526 19.6248C119.264 20.9376 118.948 22.6238 118.948 24.8592C118.948 27.0946 119.264 28.804 120.526 30.1169C121.396 31.0119 122.683 31.6969 124.496 31.6969C126.31 31.6969 127.629 31.0119 128.494 30.1169C129.756 28.804 130.072 27.12 130.072 24.8592C130.072 22.5983 129.756 20.9376 128.494 19.6248C127.627 18.7298 126.31 18.0469 124.496 18.0469ZM126.471 28.5135C126.211 28.7699 125.902 28.9718 125.563 29.1073C125.224 29.2428 124.861 29.3091 124.496 29.3024C124.136 29.3094 123.778 29.2431 123.444 29.1075C123.11 28.9719 122.807 28.7698 122.554 28.5135C121.735 27.699 121.631 26.3035 121.631 24.8592C121.631 23.4149 121.735 22.0172 122.554 21.2028C122.808 20.9501 123.112 20.7522 123.446 20.6209C123.78 20.4896 124.138 20.4278 124.496 20.4392C124.86 20.4281 125.222 20.49 125.561 20.6211C125.9 20.7522 126.209 20.95 126.471 21.2028C127.285 22.0172 127.391 23.4106 127.391 24.8592C127.391 26.3077 127.283 27.699 126.469 28.5135H126.471Z" fill="white"/>
<path d="M132.783 16.3891V18.4485H131.256V20.5015H132.783V31.5471H135.466V20.4909H138.121V18.4485H135.466V16.5397C135.466 15.5662 135.934 14.9872 136.935 14.9872H138.121V12.6797H136.424C133.939 12.6797 132.783 14.4697 132.783 16.3891Z" fill="white"/>
<path d="M143.983 14.3984H141.304V18.4557H139.767V20.5087H141.296V27.8449C141.296 29.7664 142.45 31.5543 144.948 31.5543H146.554V29.2574H145.451C144.454 29.2574 143.966 28.6784 143.966 27.7049V20.4939H146.554V18.4557H143.983V14.3984Z" fill="white"/>
<path d="M149.886 16.4591C149.811 16.2897 149.705 16.1357 149.574 16.0052C149.441 15.8767 149.286 15.7745 149.116 15.704C148.94 15.6307 148.751 15.5932 148.56 15.5938C148.368 15.5934 148.178 15.6309 148 15.704C147.829 15.774 147.673 15.8762 147.54 16.0052C147.406 16.1344 147.3 16.2886 147.226 16.4591C147.149 16.6371 147.11 16.8292 147.111 17.0232C147.108 17.3091 147.192 17.5893 147.35 17.8273C147.509 18.0652 147.735 18.2499 148 18.3573C148.178 18.4297 148.368 18.4665 148.56 18.4654C148.939 18.4676 149.303 18.3205 149.574 18.0561C149.705 17.9256 149.811 17.7716 149.886 17.6022C149.963 17.4207 150.002 17.2249 150 17.0275C150.002 16.8321 149.963 16.6384 149.886 16.4591ZM149.648 17.5195C149.534 17.8103 149.31 18.0444 149.024 18.1706C148.878 18.233 148.72 18.2648 148.56 18.264C148.398 18.2652 148.238 18.2335 148.089 18.1706C147.947 18.1098 147.819 18.0211 147.712 17.9098C147.604 17.7969 147.519 17.6644 147.461 17.5195C147.401 17.3634 147.37 17.1971 147.372 17.0296C147.371 16.8656 147.401 16.7028 147.461 16.5503C147.519 16.4067 147.604 16.2756 147.712 16.1643C147.822 16.0511 147.954 15.9616 148.1 15.9011C148.245 15.8405 148.402 15.8103 148.56 15.8122C148.72 15.8114 148.878 15.8431 149.024 15.9055C149.164 15.967 149.291 16.0549 149.398 16.1643C149.506 16.272 149.591 16.4004 149.648 16.5418C149.71 16.6939 149.741 16.8569 149.739 17.0211C149.742 17.1896 149.711 17.3568 149.648 17.5132V17.5195Z" fill="white"/>
<path d="M149.109 17.0018C149.154 16.9599 149.189 16.9084 149.211 16.851C149.233 16.7937 149.242 16.7321 149.237 16.671C149.242 16.6041 149.233 16.5367 149.209 16.474C149.185 16.4112 149.147 16.3546 149.099 16.3083C148.968 16.2194 148.811 16.1775 148.653 16.1895H148.004V17.8693H148.25V17.146H148.528L148.984 17.8693H149.266L148.785 17.127C148.903 17.1206 149.017 17.0768 149.109 17.0018ZM148.532 16.9361H148.25V16.4016H148.596C148.64 16.3984 148.685 16.3984 148.73 16.4016C148.771 16.4069 148.811 16.4198 148.848 16.4398C148.883 16.457 148.912 16.4834 148.933 16.5161C148.956 16.5568 148.967 16.6031 148.965 16.6498C148.969 16.7045 148.956 16.7591 148.929 16.8067C148.905 16.8428 148.871 16.8715 148.831 16.8894C148.787 16.9074 148.739 16.9181 148.691 16.9212C148.647 16.9339 148.592 16.9361 148.532 16.9361Z" fill="white"/>
<path d="M22.1633 0C17.7798 0 13.4948 1.29986 9.85004 3.73519C6.20531 6.17053 3.36458 9.63196 1.68709 13.6818C0.00960309 17.7316 -0.429304 22.1879 0.425872 26.4872C1.28105 30.7864 3.3919 34.7355 6.49149 37.8351C9.59109 40.9347 13.5402 43.0456 17.8395 43.9008C22.1387 44.7559 26.595 44.317 30.6448 42.6395C34.6947 40.962 38.1561 38.1213 40.5914 34.4766C43.0268 30.8318 44.3266 26.5468 44.3266 22.1633C44.3266 16.2852 41.9916 10.6479 37.8351 6.49148C33.6787 2.33506 28.0414 0 22.1633 0ZM22.1633 42.3775C18.1653 42.3775 14.2571 41.192 10.9329 38.9708C7.6087 36.7496 5.01779 33.5926 3.48782 29.899C1.95786 26.2053 1.55755 22.1409 2.33752 18.2197C3.11749 14.2985 5.04271 10.6967 7.86971 7.8697C10.6967 5.0427 14.2985 3.11748 18.2197 2.33751C22.1409 1.55754 26.2053 1.95785 29.899 3.48781C33.5926 5.01778 36.7497 7.60869 38.9708 10.9329C41.192 14.2571 42.3775 18.1653 42.3775 22.1633C42.3775 27.5245 40.2478 32.666 36.4569 36.4569C32.666 40.2478 27.5245 42.3775 22.1633 42.3775Z" fill="white"/>
<path d="M38.1252 17.7592C36.3436 11.1102 30.8166 8.0625 30.8166 8.0625L30.1952 9.03599L22.1761 21.5917L14.14 9.01478L13.5356 8.0625C13.5356 8.0625 8.00854 11.1102 6.22275 17.7656C5.61321 19.8944 5.44685 22.1257 5.73394 24.3214C6.02104 26.5172 6.75549 28.6306 7.8919 30.5312C9.5899 33.434 12.1329 35.7498 15.1814 37.1696L16.666 31.5153C13.3383 29.9459 10.9248 26.7688 10.9248 22.6691C10.9186 20.6059 11.5246 18.5872 12.666 16.8684L19.595 27.702H24.7509L31.6819 16.8684C32.8234 18.5872 33.4294 20.6059 33.4232 22.6691C33.4232 26.7688 31.0096 29.9459 27.6819 31.5153L29.1666 37.1696C32.2151 35.7498 34.758 33.434 36.4561 30.5312C37.593 28.6297 38.3277 26.5151 38.6148 24.3183C38.9019 22.1214 38.7353 19.8891 38.1252 17.7592Z" fill="white"/>
</g>
<defs>
<clipPath id="clip0_105_2826">
<rect width="150" height="44.3266" fill="white"/>
</clipPath>
</defs>
</svg>
